<?xml version="1.0" standalone="no"?>
<!DOCTYPE svg PUBLIC "-//W3C//DTD SVG 20010904//EN"
 "http://www.w3.org/TR/2001/REC-SVG-20010904/DTD/svg10.dtd">
<svg version="1.0" xmlns="http://www.w3.org/2000/svg"
 width="512.000000pt" height="512.000000pt" viewBox="0 0 512.000000 512.000000"
 preserveAspectRatio="xMidYMid meet">

<g transform="translate(0.000000,512.000000) scale(0.100000,-0.100000)"
fill="#000000" stroke="none">
<path d="M1690 4393 c-46 -5 -362 -83 -375 -92 -5 -4 -43 -20 -82 -35 -208
-79 -417 -220 -598 -401 -240 -239 -386 -488 -479 -812 -52 -182 -61 -253 -61
-488 0 -232 8 -296 60 -485 145 -525 499 -948 990 -1181 115 -55 277 -111 385
-134 41 -8 100 -21 130 -27 68 -15 476 -16 540 -1 25 6 98 22 163 37 247 57
514 187 717 352 82 66 106 113 90 174 -6 22 -25 51 -44 68 l-34 29 -178 6
c-152 4 -199 10 -312 35 -478 111 -862 418 -1072 857 -169 356 -191 758 -63
1160 70 221 265 504 456 663 96 80 119 140 82 212 -31 60 -57 70 -174 68 -58
0 -122 -3 -141 -5z"/>
<path d="M3503 3883 c-12 -2 -36 -20 -53 -39 -24 -28 -30 -44 -30 -80 0 -39 5
-51 34 -80 l34 -34 181 0 c102 0 181 -4 181 -9 0 -5 -92 -122 -204 -259 -113
-138 -209 -260 -215 -271 -34 -63 4 -147 77 -169 51 -16 599 -17 639 -1 75 28
108 99 77 164 -32 68 -56 75 -252 75 -96 0 -172 4 -170 8 3 8 158 199 340 420
98 118 110 149 82 207 -33 70 -31 70 -384 71 -173 1 -325 0 -337 -3z"/>
<path d="M2230 3447 c-71 -25 -103 -125 -60 -194 37 -62 46 -63 390 -63 170 0
310 -3 310 -6 0 -7 -133 -175 -315 -395 -258 -315 -371 -453 -387 -478 -28
-41 -24 -113 8 -151 51 -60 52 -60 552 -60 439 0 457 1 498 20 93 46 100 176
13 238 -21 15 -64 18 -343 22 l-319 5 184 224 c101 122 193 235 204 250 11 15
74 92 140 172 201 241 190 224 190 295 0 70 -16 97 -72 120 -44 19 -939 19
-993 1z"/>
<path d="M4390 3327 c-14 -7 -33 -29 -43 -50 -16 -31 -17 -42 -7 -73 21 -62
54 -74 208 -74 81 0 132 -4 130 -10 -1 -5 -71 -92 -155 -193 -191 -232 -200
-245 -184 -298 8 -27 23 -46 44 -59 30 -18 52 -20 296 -20 l263 0 34 34 c24
24 34 43 34 65 0 39 -23 86 -47 97 -10 4 -82 10 -161 14 l-143 5 118 143 c207
252 233 289 233 330 -1 40 -11 59 -50 85 -21 15 -56 17 -285 17 -187 0 -267
-4 -285 -13z"/>
</g>
</svg>
