<?xml version="1.0" standalone="no"?>
<!DOCTYPE svg PUBLIC "-//W3C//DTD SVG 20010904//EN"
 "http://www.w3.org/TR/2001/REC-SVG-20010904/DTD/svg10.dtd">
<svg version="1.0" xmlns="http://www.w3.org/2000/svg"
 width="100.000000pt" height="100.000000pt" viewBox="0 0 100.000000 100.000000"
 preserveAspectRatio="xMidYMid meet">

<g transform="translate(0.000000,100.000000) scale(0.100000,-0.100000)"
fill="#000000" stroke="none">
<path d="M267 840 c-70 -22 -133 -68 -181 -134 -47 -64 -61 -113 -61 -216 0
-73 4 -94 28 -143 97 -197 335 -265 520 -147 68 43 61 60 -28 76 -85 14 -138
40 -186 91 -63 65 -83 116 -83 208 0 93 20 143 87 212 34 36 38 44 27 58 -16
20 -51 18 -123 -5z"/>
<path d="M673 744 c-8 -21 6 -32 45 -36 l33 -3 -41 -49 c-56 -67 -51 -80 30
-84 71 -2 96 7 87 32 -4 10 -19 16 -42 16 -19 0 -35 3 -35 6 0 3 18 28 41 55
55 66 49 79 -41 79 -55 0 -72 -3 -77 -16z"/>
<path d="M435 666 c-35 -25 -12 -45 59 -48 l64 -3 -69 -85 c-38 -47 -68 -92
-67 -100 5 -22 199 -27 217 -6 21 26 2 36 -65 36 -35 0 -64 3 -64 6 0 3 32 44
70 91 39 47 70 89 70 94 0 30 -178 42 -215 15z"/>
<path d="M852 633 c2 -10 15 -20 32 -23 l28 -5 -31 -39 c-47 -59 -42 -67 32
-64 47 2 62 7 62 18 0 9 -11 16 -27 18 -16 2 -28 6 -28 8 0 3 14 23 31 44 17
21 28 43 24 49 -3 6 -33 11 -66 11 -52 0 -60 -2 -57 -17z"/>
</g>
</svg>
